<svg xmlns="http://www.w3.org/2000/svg" version="1.1" xmlns:xlink="http://www.w3.org/1999/xlink" width="512" height="512" x="0" y="0" viewBox="0 0 512 512" style="enable-background:new 0 0 512 512" xml:space="preserve" class=""><g><path fill="#ffdf40" d="M243.5 11c-109.73 0-199 89.27-199 199 0 34.39 8.82 67.94 25.54 97.6h.01l346.79.19c16.81-29.74 25.66-63.35 25.66-97.79 0-109.73-89.27-199-199-199z" opacity="1" data-original="#ffdf40" class=""></path><path fill="#f6ae2d" d="M442.5 210c0 34.44-8.85 68.05-25.66 97.79l-173.34-.09V11c109.73 0 199 89.27 199 199z" opacity="1" data-original="#ffbe40" class=""></path><path fill="#077187" d="M416.85 307.79s-5.82 9.32-7.86 12.39c-37.03 55.48-98.89 88.6-165.49 88.64h-.12c-66.65 0-128.56-33.13-165.61-88.63-3.02-4.58-2.98-4.65-7.73-12.59l5.14-7.85c22.65-34.55 54.71-60.62 91.6-75.81-11.56-15.73-18.4-35.14-18.4-56.12 0-52.38 42.62-95 95-95h.12c52.33.07 94.88 42.66 94.88 95 0 20.98-6.84 40.39-18.4 56.12 36.89 15.19 68.95 41.26 91.6 75.81z" opacity="1" data-original="#47568c" class=""></path><path fill="#074f57" d="M416.85 307.79s-5.82 9.32-7.86 12.39c-37.03 55.48-98.89 88.6-165.49 88.64v-336c52.33.07 94.88 42.66 94.88 95 0 20.98-6.84 40.39-18.4 56.12 36.89 15.19 68.95 41.26 91.6 75.81z" opacity="1" data-original="#2c3b73" class=""></path><path fill="#d6d6f2" d="M435.5 382v100c0 16.57-13.43 30-30 30h-324c-16.57 0-30-13.43-30-30V382c0-16.57 13.43-30 30-30h324c16.57 0 30 13.43 30 30z" opacity="1" data-original="#d6d6f2" class=""></path><path fill="#bfbfef" d="M435.5 382v100c0 16.57-13.43 30-30 30h-162V352h162c16.57 0 30 13.43 30 30z" opacity="1" data-original="#bfbfef" class=""></path><circle cx="371.5" cy="431" r="15.005" fill="#074f57" opacity="1" data-original="#2c3b73" class=""></circle><circle cx="307.5" cy="431" r="15.005" fill="#074f57" opacity="1" data-original="#2c3b73" class=""></circle><circle cx="179.5" cy="431" r="15.005" fill="#077187" opacity="1" data-original="#47568c" class=""></circle><circle cx="115.5" cy="431" r="15.005" fill="#077187" opacity="1" data-original="#47568c" class=""></circle><circle cx="243.5" cy="431" r="15" fill="#077187" opacity="1" data-original="#47568c" class=""></circle><path fill="#074f57" d="M258.5 431c0 8.28-6.72 15-15 15v-30c8.28 0 15 6.72 15 15z" opacity="1" data-original="#2c3b73" class=""></path><circle cx="379.5" cy="88" r="88" fill="#ace233" opacity="1" data-original="#ace233" class=""></circle><path fill="#60992d" d="M467.5 88c0 48.6-39.4 88-88 88V0c48.6 0 88 39.4 88 88z" opacity="1" data-original="#65cc3a" class=""></path><path fill="#f2f2fc" d="m422.11 83.61-32 32c-2.93 2.93-6.77 4.39-10.61 4.39s-7.68-1.46-10.61-4.39l-16-16c-5.85-5.86-5.85-15.36 0-21.22 5.86-5.85 15.36-5.85 21.22 0l5.39 5.4 21.39-21.4c5.86-5.85 15.36-5.85 21.22 0 5.85 5.86 5.85 15.36 0 21.22z" opacity="1" data-original="#f2f2fc" class=""></path><path fill="#d6d6f2" d="m422.11 83.61-32 32A14.953 14.953 0 0 1 379.5 120V83.79l21.39-21.4c5.86-5.85 15.36-5.85 21.22 0 5.85 5.86 5.85 15.36 0 21.22z" opacity="1" data-original="#d6d6f2" class=""></path></g></svg>