<svg xmlns="http://www.w3.org/2000/svg" version="1.1" xmlns:xlink="http://www.w3.org/1999/xlink" width="512" height="512" x="0" y="0" viewBox="0 0 128 128" style="enable-background:new 0 0 512 512" xml:space="preserve" class=""><g><path fill="#077187" d="M64 19.2c-24.9 0-45 20.1-45 45s20.1 45 45 45 45-20.1 45-45-20.1-45-45-45z" opacity="1" data-original="#0f3eea" class=""></path><g fill="#fffde6"><path d="M64 37.7c-9 0-16.5 6.9-17.3 15.9 0 .4-.1.9-.1 1.3 0 2.9.7 5.7 2.1 8.2 4.6 8.4 15.1 11.5 23.5 6.9 2.9-1.6 5.3-4 6.9-6.9 1.4-2.5 2.1-5.3 2.1-8.2 0-.5 0-.9-.1-1.3-.6-9-8.1-15.9-17.1-15.9z" fill="#f6ae2d" opacity="1" data-original="#fffde6" class=""></path><path d="M82.3 78.6c-4.5-4.1-10.4-6.4-16.5-6.4h-3.7c-13.5 0-24.5 11-24.5 24.5v3.9c15.7 11.4 37 11.4 52.7 0v-3.9c.1-6.9-2.8-13.5-8-18.1z" fill="#f6ae2d" opacity="1" data-original="#fffde6" class=""></path></g><path fill="#074f57" d="M108.6 78.2c-.3.9-1.2 1.5-2.2 1.2s-1.5-1.3-1.2-2.2c.1-.4.3-.9.4-1.3.2-.9 1.2-1.5 2.1-1.3s1.5 1.2 1.3 2.1c0 .1-.2.8-.4 1.5zm2.1-14c0 1-.8 1.8-1.8 1.8s-1.8-.8-1.8-1.8c0-23.9-19.3-43.3-43.2-43.3S20.6 40.2 20.6 64.1c0 12.6 5.5 24.7 15.1 32.9v-.3c0-11.6 7.7-21.9 18.8-25.2C48 67.8 44.4 60.6 45 53.4c.9-10.5 10.1-18.3 20.6-17.4 9.3.8 16.7 8.2 17.4 17.5.6 7.1-3.1 14.4-9.7 18.1 11.2 3.3 18.8 13.6 18.8 25.2v.2c2.9-2.5 5.5-5.4 7.7-8.6.5-.8 1.6-1 2.4-.5s1 1.6.5 2.4C94.2 103 79.9 110.9 64 110.9c-25.5 0-46.8-20.7-46.8-46.9.1-25.4 20.7-46.6 46.8-46.6 25.8 0 46.8 20.9 46.7 46.8zm-46.6 6.2c9.2 0 16.1-7.9 15.4-16.7-.7-8.6-8.2-14.9-16.8-14.2-7.6.6-13.6 6.6-14.2 14.2-.7 8.9 6.3 16.7 15.4 16.7zM39.4 99.7c14.8 10.3 34.4 10.3 49.2 0v-3c0-12.6-10.2-22.8-22.8-22.8h-3.7c-12.6 0-22.8 10.2-22.8 22.8z" opacity="1" data-original="#1c2870" class=""></path></g></svg>