<svg xmlns="http://www.w3.org/2000/svg" version="1.1" xmlns:xlink="http://www.w3.org/1999/xlink" width="512" height="512" x="0" y="0" viewBox="0 0 128 128" style="enable-background:new 0 0 512 512" xml:space="preserve" class=""><g><path fill="#e1f7ff" d="M14 17h100a8 8 0 0 1 8 8v77a9 9 0 0 1-9 9H15a9 9 0 0 1-9-9V25a8 8 0 0 1 8-8Z" opacity="1" data-original="#e1f7ff" class=""></path><path fill="#077187" d="M114 17H14a8 8 0 0 0-8 8v13.433h116V25a8 8 0 0 0-8-8Z" opacity="1" data-original="#0081d0" class=""></path><circle cx="21.57" cy="27.717" r="4" fill="#f6ae2d" opacity="1" data-original="#f37249" class=""></circle><circle cx="37.626" cy="27.717" r="4" fill="#f87666" opacity="1" data-original="#ffcc5b" class=""></circle><path fill="#a4def7" d="M122 25a8 8 0 0 0-8-8H60.262L50.124 38.433H122Z" opacity="1" data-original="#a4def7" class=""></path><circle cx="64" cy="65.019" r="18" fill="#a4def7" opacity="1" data-original="#a4def7" class=""></circle><path fill="#f6ae2d" d="M69.092 58.792A5.092 5.092 0 1 0 64 63.883a5.092 5.092 0 0 0 5.092-5.091ZM64 69.65c-5.928 0-11.1 2.828-13.737 6.986a17.973 17.973 0 0 0 27.474 0C75.1 72.478 69.928 69.65 64 69.65Z" opacity="1" data-original="#f37249" class=""></path><path fill="#a4def7" d="M32.5 91.003h63v10.858h-63z" opacity="1" data-original="#a4def7" class=""></path><path fill="#077187" d="M32.5 91.003h10.858v10.858H32.5z" opacity="1" data-original="#0081d0" class=""></path><path fill="#074f57" d="M101.66 112.75a1.75 1.75 0 0 1 0-3.5h.861a1.75 1.75 0 1 1 0 3.5ZM114 15.25H14A9.761 9.761 0 0 0 4.25 25v13.433A1.751 1.751 0 0 0 6 40.183h69.713a1.75 1.75 0 0 0 0-3.5H52.888l5.779-12.219a1.75 1.75 0 0 0-3.164-1.5l-6.487 13.719H7.75V25A6.257 6.257 0 0 1 14 18.75h100a6.257 6.257 0 0 1 6.25 6.25v11.683H93.234a1.75 1.75 0 0 0 0 3.5h27.016V102a7.258 7.258 0 0 1-7.25 7.25h-3.106a1.75 1.75 0 0 0 0 3.5H113A10.762 10.762 0 0 0 123.75 102V25a9.761 9.761 0 0 0-9.75-9.75Zm-99 97.5h80.053a1.75 1.75 0 0 0 0-3.5H15A7.258 7.258 0 0 1 7.75 102V47.019a1.75 1.75 0 0 0-3.5 0V102A10.762 10.762 0 0 0 15 112.75Zm68.66-76.067a1.75 1.75 0 0 0 0 3.5h.957a1.75 1.75 0 0 0 0-3.5ZM21.57 25.466a2.253 2.253 0 0 1 2.25 2.25 1.75 1.75 0 0 0 3.5 0 5.75 5.75 0 1 0-5.75 5.75 1.75 1.75 0 0 0 0-3.5 2.25 2.25 0 0 1 0-4.5Zm16.057-3.5a5.75 5.75 0 1 1-5.75 5.75 5.757 5.757 0 0 1 5.75-5.75Zm0 3.5a2.25 2.25 0 1 0 2.25 2.25 2.253 2.253 0 0 0-2.25-2.25Zm76.39 2.25a1.751 1.751 0 0 0-1.75-1.75H67.523a1.75 1.75 0 0 0 0 3.5h44.744a1.75 1.75 0 0 0 1.75-1.75ZM64 45.269a19.75 19.75 0 1 1-14.9 32.676 1.771 1.771 0 0 1-.283-.312A19.736 19.736 0 0 1 64 45.269Zm0 3.5a16.222 16.222 0 0 0-13.7 24.95A18.425 18.425 0 0 1 64 67.9a19.493 19.493 0 0 1 8.525 1.937 1.75 1.75 0 0 1-1.539 3.144A15.968 15.968 0 0 0 64 71.4a14.728 14.728 0 0 0-11.473 5.115A16.246 16.246 0 1 0 64 48.769ZM62.25 53.7A1.751 1.751 0 0 0 64 55.45a3.342 3.342 0 1 1-3.342 3.342 1.75 1.75 0 0 0-3.5 0A6.842 6.842 0 1 0 64 51.95a1.75 1.75 0 0 0-1.75 1.75ZM95.5 89.253A1.751 1.751 0 0 1 97.25 91v10.858a1.751 1.751 0 0 1-1.75 1.75h-63a1.751 1.751 0 0 1-1.75-1.75V91a1.751 1.751 0 0 1 1.75-1.75Zm-1.75 3.5H45.108v3.289a1.75 1.75 0 0 1-3.5 0v-3.289H34.25v7.358h59.5Z" opacity="1" data-original="#2f464c" class=""></path></g></svg>