<svg xmlns="http://www.w3.org/2000/svg" version="1.1" xmlns:xlink="http://www.w3.org/1999/xlink" width="512" height="512" x="0" y="0" viewBox="0 0 682.667 682.667" style="enable-background:new 0 0 512 512" xml:space="preserve" class=""><g><defs><clipPath id="a" clipPathUnits="userSpaceOnUse"><path d="M0 512h512V0H0Z" fill="#074f57" opacity="1" data-original="#000000" class=""></path></clipPath></defs><g clip-path="url(#a)" transform="matrix(1.33333 0 0 -1.33333 0 682.667)"><path d="M0 0c-11.072 15.522-32.874 16.84-45.764 3.947l-47.881-47.881c-8.5-8.499-19.799-13.179-31.82-13.179h-64.086c-8.284 0-15-6.716-15-15v-130c0-8.284 6.716-15 15-15h110c8.284 0 15 6.716 15 15v102.421l61.213 61.213c6.592 6.59 9.738 15.708 8.536 25.167A29.346 29.346 0 0 1 0 0" style="fill-opacity:1;fill-rule:nonzero;stroke:none" transform="translate(445.55 478.113)" fill="#f6ae2d" data-original="#8cc314" class="" opacity="1"></path><path d="M0 0c-2.626 0-5.286.689-7.703 2.14-7.104 4.262-9.407 13.475-5.145 20.579l30 50a15.002 15.002 0 0 0 12.863 7.283h30c8.284 0 15-6.716 15-15 0-8.284-6.716-15-15-15H38.508L12.877 7.285C10.064 2.598 5.096 0 0 0" style="fill-opacity:1;fill-rule:nonzero;stroke:none" transform="translate(436.985 220.998)" fill="#074f57" data-original="#445064" class="" opacity="1"></path><path d="M0 0c-5.097 0-10.064 2.597-12.877 7.285l-25.631 42.717h-21.507c-8.284 0-15 6.716-15 15 0 8.284 6.716 15 15 15h30a15.002 15.002 0 0 0 12.863-7.283l30-50C17.11 15.615 14.807 6.402 7.703 2.14A14.919 14.919 0 0 0 0 0" style="fill-opacity:1;fill-rule:nonzero;stroke:none" transform="translate(75.015 220.998)" fill="#077187" data-original="#5d6787" class="" opacity="1"></path><path d="M0 0c-26.191 0-47.5 21.309-47.5 47.5S-26.191 95 0 95s47.5-21.309 47.5-47.5S26.191 0 0 0" style="fill-opacity:1;fill-rule:nonzero;stroke:none" transform="translate(318.5 416)" fill="#ffc896" data-original="#ffc896" class=""></path><path d="M0 0c11.696 11.697 30.73 11.698 42.426 0l47.882-47.881c8.499-8.5 19.798-13.181 31.819-13.181h64.086v-160h-110c-8.284 0-15 6.716-15 15v102.421L0-42.427c-5.667 5.666-8.787 13.2-8.787 21.213C-8.787-13.2-5.667-5.666 0 0" style="fill-opacity:1;fill-rule:nonzero;stroke:none" transform="translate(69.787 482.062)" fill="#f87666" data-original="#49acff" class="" opacity="1"></path><path d="M0 0c0 26.191 21.309 47.5 47.5 47.5S95 26.191 95 0 73.691-47.5 47.5-47.5 0-26.191 0 0" style="fill-opacity:1;fill-rule:nonzero;stroke:none" transform="translate(146 463.5)" fill="#ffd5b6" data-original="#ffd5b6" class=""></path><path d="M0 0h-362a15 15 0 0 0-14.627 18.324l14.386 63.297c3.753 16.516 13.109 31.43 26.345 41.994 13.237 10.567 29.854 16.385 46.79 16.385h216.212c16.936 0 33.553-5.818 46.79-16.385C-12.868 113.051-3.512 98.137.241 81.621l14.386-63.297A15.001 15.001 0 0 0 0 0" style="fill-opacity:1;fill-rule:nonzero;stroke:none" transform="translate(437 221)" fill="#60992d" data-original="#ff46a0" class="" opacity="1"></path><path d="M0 0c-3.753 16.516-13.109 31.43-26.346 41.994-13.236 10.567-29.853 16.385-46.789 16.385h-108.106v-140h181a14.999 14.999 0 0 1 14.627 18.324z" style="fill-opacity:1;fill-rule:nonzero;stroke:none" transform="translate(437.241 302.621)" fill="#60992d" data-original="#fa2169" class="" opacity="1"></path><path d="M0 0h324.416l-10.221 44.973C309.509 65.597 291.464 80 270.314 80H54.102c-21.15 0-39.195-14.403-43.881-35.027Z" style="fill-opacity:1;fill-rule:nonzero;stroke:none" transform="translate(93.792 251)" fill="#dcf0ff" data-original="#dcf0ff" class=""></path><path d="M0 0h-108.106v-80H54.102L43.881-35.027C39.194-14.403 21.149 0 0 0" style="fill-opacity:1;fill-rule:nonzero;stroke:none" transform="translate(364.106 331)" fill="#bedcf0" data-original="#bedcf0" class=""></path><path d="M0 0h-40c-19.299 0-35 15.701-35 35v50c0 8.284 6.716 15 15 15h80c8.284 0 15-6.716 15-15V35C35 15.701 19.299 0 0 0" style="fill-opacity:1;fill-rule:nonzero;stroke:none" transform="translate(427 1)" fill="#074f57" data-original="#445064" class="" opacity="1"></path><path d="M0 0h-40c-19.299 0-35 15.701-35 35v50c0 8.284 6.716 15 15 15h80c8.284 0 15-6.716 15-15V35C35 15.701 19.299 0 0 0" style="fill-opacity:1;fill-rule:nonzero;stroke:none" transform="translate(125 1)" fill="#077187" data-original="#5d6787" class="" opacity="1"></path><path d="M0 0h-482c-8.284 0-15 6.716-15 15v90c0 41.355 33.645 75 75 75h362c41.355 0 75-33.645 75-75V15C15 6.716 8.284 0 0 0" style="fill-opacity:1;fill-rule:nonzero;stroke:none" transform="translate(497 71)" fill="#8cc314" data-original="#ff6ec1" class="" opacity="1"></path><path d="M0 0h-181v-180H60c8.284 0 15 6.716 15 15v90C75-33.645 41.355 0 0 0" style="fill-opacity:1;fill-rule:nonzero;stroke:none" transform="translate(437 251)" fill="#60992d" data-original="#ff46a0" class="" opacity="1"></path><path d="M0 0h-150v75c0 8.284 6.716 15 15 15h120c8.284 0 15-6.716 15-15Z" style="fill-opacity:1;fill-rule:nonzero;stroke:none" transform="translate(331 71)" fill="#dcf0ff" data-original="#dcf0ff" class=""></path><path d="M0 0h-60v-90h75v75C15-6.716 8.284 0 0 0" style="fill-opacity:1;fill-rule:nonzero;stroke:none" transform="translate(316 161)" fill="#bedcf0" data-original="#bedcf0" class=""></path><path d="M0 0c-24.813 0-45 20.187-45 45s20.187 45 45 45 45-20.187 45-45S24.813 0 0 0" style="fill-opacity:1;fill-rule:nonzero;stroke:none" transform="translate(407 101)" fill="#f6ae2d" data-original="#faaa0f" class="" opacity="1"></path><path d="M0 0c-8.271 0-15 6.729-15 15s6.729 15 15 15 15-6.729 15-15S8.271 0 0 0" style="fill-opacity:1;fill-rule:nonzero;stroke:none" transform="translate(407 131)" fill="#f6ae2d" data-original="#ffc81e" class="" opacity="1"></path><path d="M0 0c-24.813 0-45 20.187-45 45s20.187 45 45 45 45-20.187 45-45S24.813 0 0 0" style="fill-opacity:1;fill-rule:nonzero;stroke:none" transform="translate(105 101)" fill="#f6ae2d" data-original="#ffc81e" class="" opacity="1"></path><path d="M0 0c-8.271 0-15 6.729-15 15s6.729 15 15 15 15-6.729 15-15S8.271 0 0 0" style="fill-opacity:1;fill-rule:nonzero;stroke:none" transform="translate(105 131)" fill="#f6ae2d" data-original="#ffe350" class="" opacity="1"></path></g></g></svg>