<svg height="469pt" viewBox="-42 0 469 469.33333" width="469pt" xmlns="http://www.w3.org/2000/svg"><path d="m352.167969 384h-320c-17.675781 0-32 14.328125-32 32 0 29.457031 23.875 53.332031 53.332031 53.332031h277.332031c29.457031 0 53.335938-23.875 53.335938-53.332031 0-17.671875-14.328125-32-32-32zm0 0"/><path d="m101.417969 191.28125c.320312-23.304688 19.339843-42.007812 42.644531-41.949219h96.210938c23.554687.027344 42.640624 19.113281 42.667968 42.667969l11.113282 170.667969h46.894531l-10.117188-192c-.039062-35.332031-28.667969-63.960938-64-64h-10.664062v-21.335938h21.332031c11.777344-.011719 21.320312-9.554687 21.332031-21.332031v-21.332031c-.027343-23.554688-19.113281-42.6406252-42.664062-42.667969h-128c-23.554688.0273438-42.640625 19.113281-42.667969 42.667969v21.332031c.011719 11.777344 9.554688 21.320312 21.332031 21.332031h21.335938v21.335938h-10.667969c-35.136719-.035157-63.714844 28.300781-63.980469 63.4375l-10.132812 192.5625h46.375zm48.082031-105.949219h85.332031v21.335938h-85.332031zm0 0"/><path d="m240.273438 170.667969h-96.210938c-11.777344.011719-21.320312 9.554687-21.332031 21.332031l-11.582031 170.667969h161.527343l-11.050781-169.980469c.128906-5.761719-2.058594-11.335938-6.070312-15.476562-4.011719-4.136719-9.515626-6.496094-15.28125-6.542969zm0 0"/></svg>