<svg id="Layer_1" enable-background="new 0 0 512 512" height="512" viewBox="0 0 512 512" width="512" xmlns="http://www.w3.org/2000/svg"><g><g><path d="m500.168 192.762-9.537-36.12c-.779-2.949-2.861-5.382-5.655-6.606l-50.703-22.22-30.49-40.226c-1.975-2.604-5.093-4.069-8.362-3.951l-62.997 2.477-41.603-40.373c-1.392-1.351-3.146-2.267-5.049-2.639l-86.726-16.919c-3.322-.646-6.741.428-9.096 2.855l-59.817 61.715-77.083 26.19c-2.528.859-4.608 2.694-5.776 5.096l-34.132 70.196c-7.655 2.808-13.142 10.146-13.142 18.763v25.001c0 11.027 8.972 19.999 20 19.999h1.979l32.649 146.916c-2.975 7.11-4.625 14.907-4.625 23.084 0 33.084 26.916 60 60 60 29.676 0 54.374-21.661 59.151-49.999h173.693c4.777 28.338 29.475 49.999 59.15 49.999 33.084 0 60-26.916 60-60 0-8.177-1.649-15.974-4.625-23.084l32.649-146.916h1.979c11.028 0 20-8.972 20-19.999v-25.001c0-8.118-4.869-15.107-11.832-18.238zm-21.151-1.762h-41.142v-39.769l34.65 15.185zm-283.174-139.301 31.33 45.224-45.912 36.546-31.809-33.907zm119.511 45.72-16.519 22.777-42.101-23.731 27.461-29.284zm62.087 6.942-46.102 74.701-18.275-44.421 20.716-28.564zm-137.736 51.396-38.626-12.501 40.601-32.318 39.406 22.212zm2.189-72.707-22.534-32.524 44.832 8.746zm-125.662 68.41-36.575-22.432 43.169-14.667zm17.279 17.076 8.479-47.698 28.132 29.987-1.566 40.175h-35.045zm56.243-7.924 39.175 12.679-4.058 17.709h-36.301zm59.71 12.604 47.228-25.802 17.931 43.586h-69.234zm168.411 17.784h-55.093l55.093-36.46zm-4.409-57.525-51.541 34.108 34.735-56.282zm-353.028 7.227 53.073 32.55v17.748h-77.529zm431.485 70.298c.024 0 .047.003.07.003h.007v24.997h-9.809c-.033-.001-.065 0-.098 0l-452.228.001c-.012 0-.023 0-.035 0h-9.83l-.002-25.001zm-381.92 255c-22.056 0-40-17.944-40-40s17.944-40 40-40 40 17.944 40 40-17.944 40-40 40zm291.994 0c-22.056 0-40-17.944-40-40s17.944-40 40-40 40 17.944 40 40-17.944 40-40 40zm39.736-84.902c-10.591-9.384-24.505-15.098-39.736-15.098-29.676 0-54.375 21.662-59.151 50.001h-173.692c-4.776-28.34-29.475-50.001-59.151-50.001-15.23 0-29.145 5.714-39.736 15.099l-18.911-85.097h47.773c5.522 0 10-4.478 10-10s-4.478-10-10-10h-52.218l-4.445-20.002h427.068z"/><path d="m110.007 416.001h-.008c-5.522 0-9.996 4.478-9.996 10s4.481 10 10.004 10 10-4.478 10-10-4.478-10-10-10z"/><path d="m402.001 416.001h-.008c-5.522 0-9.996 4.478-9.996 10s4.481 10 10.004 10 10-4.478 10-10-4.478-10-10-10z"/><path d="m144.126 296.002h.007c5.522 0 9.997-4.478 9.997-10s-4.481-10-10.004-10-10 4.478-10 10 4.478 10 10 10z"/></g></g></svg>