<?xml version="1.0" encoding="UTF-8"?>
<svg xmlns="http://www.w3.org/2000/svg" viewBox="0 0 512 512" width="512" height="512"><g id="Layer_8" data-name="Layer 8"><path d="M465.625,460.832a87.008,87.008,0,0,1-43.062-37.469L413,406.633a66.392,66.392,0,0,0-17.961-20.356l-6.515-4.886A67.417,67.417,0,0,0,348.344,368a66.532,66.532,0,0,0-48.094,20.447l-4.179-20.888a416.91,416.91,0,0,1-8.071-81.5,159.592,159.592,0,0,1,14.891-67.078L324.645,184H336.4A103.6,103.6,0,0,0,440,80.4V48a8,8,0,0,0-8-8H399.6A103.6,103.6,0,0,0,296,143.6V152.9L265.75,186.18a267.363,267.363,0,0,0-35.89-50.035L216,120.9v-9.3A103.6,103.6,0,0,0,112.4,8H80a8,8,0,0,0-8,8V48.4A103.6,103.6,0,0,0,175.6,152h11.754l11.691,18.8c14.789,23.789,23.336,49.558,24.711,74.512.156,2.906.242,5.828.242,8.746v5.593A367.632,367.632,0,0,1,203.34,381.1,66.556,66.556,0,0,0,163.657,368,67.434,67.434,0,0,0,123.469,381.4l-6.5,4.878A66.431,66.431,0,0,0,99,406.629l-9.562,16.734a87.28,87.28,0,0,1-43.414,37.61A22.312,22.312,0,0,0,54.313,504H457.688a22.314,22.314,0,0,0,7.937-43.168ZM398.344,142.344A87.045,87.045,0,0,1,336.4,168h-1.8l32.044-51.521,5.259-7.01a171.594,171.594,0,0,1,42.195-39.918l9.906-6.6V80.4A87.02,87.02,0,0,1,398.344,142.344ZM337.657,81.656A87.042,87.042,0,0,1,399.6,56h5.974l-.357.238A187.574,187.574,0,0,0,359.1,99.867L356,104H344a8,8,0,0,0-5.922,2.617l-25.644,28.209A86.931,86.931,0,0,1,337.657,81.656Zm-163.313-32a86.933,86.933,0,0,1,25.222,53.167L173.922,74.617A8.008,8.008,0,0,0,168,72H156l-3.1-4.133a187.591,187.591,0,0,0-46.117-43.629L106.424,24H112.4A87.045,87.045,0,0,1,174.344,49.656ZM175.6,136A87.6,87.6,0,0,1,88,48.4V30.947l9.907,6.6a171.612,171.612,0,0,1,42.2,39.918l5.258,7.01L177.405,136ZM240,259.648v-5.593q0-4.81-.265-9.617c-1.524-27.637-10.9-56.024-27.094-82.09l-42.055-67.61L200,127.091v.225h.205l17.811,19.59a251.447,251.447,0,0,1,38.828,56.672,8,8,0,0,0,13.078,1.805L311.8,159.316h.2V159.1l29.414-32.357-52.359,84.188a8.121,8.121,0,0,0-.445.82A175.639,175.639,0,0,0,272,286.055a432.708,432.708,0,0,0,8.383,84.644l6.288,31.425A33.292,33.292,0,0,1,268,408a49.526,49.526,0,0,0-11.961,1.465A49.982,49.982,0,0,0,244,408a33.456,33.456,0,0,1-26.25-12.621l-1.71-2.135A383.589,383.589,0,0,0,240,259.648ZM330.055,488H54.313A6.317,6.317,0,0,1,48,481.688a6.423,6.423,0,0,1,4.313-6A102.3,102.3,0,0,0,73.617,464l29.415,0a48.637,48.637,0,0,0,34.625-14.34A32.757,32.757,0,0,1,160.969,440H176V424H160.969a48.662,48.662,0,0,0-34.625,14.344A32.746,32.746,0,0,1,103.032,448H91.293a102.145,102.145,0,0,0,12.035-16.7l9.563-16.739a50.6,50.6,0,0,1,13.68-15.488l6.5-4.879A51.3,51.3,0,0,1,163.657,384a50.711,50.711,0,0,1,39.8,19.137l1.8,2.246A49.385,49.385,0,0,0,244,424a33.444,33.444,0,0,1,26.242,12.613L279.355,448H240v16h57.293a49.655,49.655,0,0,0,7.832,3.477l26.805,8.933A5.947,5.947,0,0,1,330.055,488Zm127.633,0H351.18a21.954,21.954,0,0,0-14.188-26.77l-26.8-8.933a33.559,33.559,0,0,1-15.617-10.891l-11.829-14.789q-1.651-2.05-3.468-3.9a49.342,49.342,0,0,0,27.461-17.332l1.812-2.258A50.7,50.7,0,0,1,348.344,384a51.29,51.29,0,0,1,30.578,10.191l6.516,4.887a50.594,50.594,0,0,1,13.672,15.488l8.838,15.467A107.975,107.975,0,0,0,372.617,424H368v16h4.617a92.151,92.151,0,0,1,34.407,6.629l20.132,8.051a103.906,103.906,0,0,0,32.883,21.152A6.311,6.311,0,0,1,457.688,488Z"/><rect x="336" y="424" width="16" height="16"/><rect x="208" y="448" width="16" height="16"/></g></svg>
